<?xml version="1.0" encoding="utf-8"?>
<!-- Generator: Adobe Illustrator 19.1.1, SVG Export Plug-In . SVG Version: 6.00 Build 0)  -->
<svg version="1.1" id="Layer_1" xmlns="http://www.w3.org/2000/svg" xmlns:xlink="http://www.w3.org/1999/xlink" x="0px" y="0px"
	 viewBox="0 0 1080 200" style="enable-background:new 0 0 1080 200;" xml:space="preserve">
<style type="text/css">
	.st0{fill:#00CFFF;}
	.st1{fill:#FFFFFF;}
</style>
<g>
	<g>
		<path class="st0" d="M102.5,0C47.3,0,2.5,44.8,2.5,100s44.8,100,100,100s100-44.8,100-100S157.7,0,102.5,0z M102.5,182.5
			C56.9,182.5,20,145.6,20,100s36.9-82.5,82.5-82.5S185,54.4,185,100S148.1,182.5,102.5,182.5z"/>
		<polygon class="st0" points="117.5,115 57.5,145 87.5,85 147.5,55 		"/>
		<circle class="st1" cx="102.5" cy="100" r="7.5"/>
	</g>
	<g>
		<path class="st0" d="M240,127.5c-6.9-7.3-10.3-16.1-10.3-26.5c0-10.4,3.4-19.2,10.3-26.6c6.8-7.4,15.3-11,25.4-11
			c7.1,0,13.7,2.2,20,6.6c0.5-1.9,1.4-3.5,2.8-4.7c1.4-1.2,3.1-1.9,5.2-1.9c2,0,3.8,0.8,5.4,2.4c1.5,1.6,2.3,3.5,2.3,5.7v58.9
			c0,2.2-0.8,4.1-2.3,5.6c-1.6,1.6-3.4,2.3-5.4,2.3c-2.1,0-3.8-0.6-5.2-1.8c-1.4-1.2-2.4-2.8-2.8-4.7c-6.1,4.3-12.8,6.5-20,6.5
			C255.3,138.5,246.8,134.8,240,127.5z M245.8,101.1c0,6.1,1.8,11.1,5.5,15.2c3.6,4.1,8.3,6.2,14.1,6.2c5.7,0,10.5-2,14.3-6.2
			c3.8-4.1,5.6-9.2,5.6-15.2s-1.9-11.1-5.7-15.3c-3.8-4.2-8.5-6.3-14.2-6.3c-5.7,0-10.3,2.1-14,6.2C247.6,89.9,245.8,95,245.8,101.1
			z"/>
		<path class="st0" d="M396.1,164.1c-1.6,1.6-3.5,2.4-5.8,2.4s-4.2-0.8-5.8-2.4c-1.6-1.6-2.4-3.5-2.4-5.6v-26.4
			c-6.1,4.2-12.8,6.3-20.1,6.3c-10.1,0-18.7-3.6-25.8-11c-7.1-7.3-10.7-16.1-10.7-26.5c0-10.4,3.5-19.2,10.7-26.6
			c7.1-7.4,15.7-11,25.8-11c7,0,13.8,2.1,20.4,6.3c0.3-1.8,1.2-3.3,2.7-4.5c1.5-1.2,3.3-1.8,5.4-1.8c2.1,0,3.9,0.8,5.5,2.4
			c1.6,1.6,2.4,3.5,2.4,5.7v87C398.5,160.7,397.7,162.5,396.1,164.1z M362.2,79.7c-5.5,0-10.2,2.2-14.3,6.4c-4.1,4.3-6.1,9.3-6.1,15
			c0,5.7,2,10.7,6,14.9c4,4.3,8.8,6.4,14.5,6.4s10.2-2.1,13.7-6.3c4.1-3.8,6.1-8.8,6.1-15c0-6.2-2.1-11.2-6.1-15
			C372.3,81.8,367.7,79.7,362.2,79.7z"/>
		<path class="st0" d="M490.9,107.3c0,8.5-3.1,15.8-9.4,22c-6.3,6.2-13.6,9.2-22.2,9.2c-8.5,0-15.9-3-22-9.1
			c-6.1-6.1-9.2-13.4-9.2-22.1V71.4c0-2.1,0.8-3.9,2.3-5.6c1.5-1.6,3.4-2.4,5.6-2.4c2.2,0,4.1,0.8,5.6,2.4c1.5,1.6,2.3,3.5,2.3,5.6
			v35.8c0,4.3,1.5,7.9,4.4,10.9c2.9,3,6.6,4.4,10.9,4.4c4.3,0,8-1.5,11-4.4c3-2.9,4.6-6.6,4.7-10.9V71.4c0-2.1,0.8-3.9,2.3-5.6
			c1.5-1.6,3.3-2.4,5.5-2.4c2.1,0,4,0.8,5.7,2.4c1.6,1.6,2.5,3.5,2.5,5.6V107.3z"/>
		<path class="st0" d="M523.8,127.5c-6.9-7.3-10.3-16.1-10.3-26.5c0-10.4,3.4-19.2,10.3-26.6c6.8-7.4,15.3-11,25.4-11
			c7.1,0,13.7,2.2,20,6.6c0.5-1.9,1.4-3.5,2.8-4.7c1.4-1.2,3.1-1.9,5.2-1.9c2,0,3.8,0.8,5.4,2.4c1.5,1.6,2.3,3.5,2.3,5.7v58.9
			c0,2.2-0.8,4.1-2.3,5.6c-1.6,1.6-3.4,2.3-5.4,2.3c-2.1,0-3.8-0.6-5.2-1.8c-1.4-1.2-2.4-2.8-2.8-4.7c-6.1,4.3-12.8,6.5-20,6.5
			C539.1,138.5,530.6,134.8,523.8,127.5z M529.6,101.1c0,6.1,1.8,11.1,5.5,15.2c3.6,4.1,8.3,6.2,14.1,6.2c5.7,0,10.5-2,14.3-6.2
			c3.8-4.1,5.6-9.2,5.6-15.2s-1.9-11.1-5.7-15.3c-3.8-4.2-8.5-6.3-14.2-6.3c-5.7,0-10.3,2.1-14,6.2C531.4,89.9,529.6,95,529.6,101.1
			z"/>
		<path class="st0" d="M639.7,63.5c2.3,0,4.3,0.8,5.9,2.4c1.7,1.6,2.5,3.5,2.5,5.8s-0.8,4.2-2.5,5.9c-1.6,1.6-3.6,2.5-5.9,2.5h-3.8
			v41.9c2.3,0,4.2,0.8,5.9,2.5c1.6,1.7,2.4,3.6,2.4,5.9c0,2.3-0.8,4.3-2.4,5.9c-1.6,1.6-3.6,2.4-5.9,2.4c-4.6,0-8.5-1.6-11.8-4.9
			c-3.3-3.2-4.9-7.2-4.9-11.8V80h-4.4c-2.3,0-4.3-0.8-5.8-2.4c-1.6-1.6-2.4-3.5-2.4-5.9c0-2.3,0.8-4.2,2.4-5.9
			c1.6-1.6,3.5-2.4,5.8-2.4h4.4V41.7c0-2.3,0.8-4.2,2.5-5.9c1.7-1.6,3.6-2.4,5.9-2.4c2.3,0,4.2,0.8,5.9,2.4c1.6,1.6,2.4,3.6,2.4,5.9
			v21.8H639.7z"/>
		<path class="st0" d="M707,138.9c-10.1,0-18.7-3.7-25.7-11.1c-7-7.4-10.5-16.3-10.5-26.6c0-10.3,3.5-19.2,10.6-26.6
			c7-7.4,15.5-11.2,25.4-11.2s18.3,3.8,25.3,11.3c6.9,7.6,10.4,16.5,10.4,26.9c0,10.4-3.5,19-10.5,25.8
			C725.5,135.1,717.1,138.9,707,138.9z M692.6,85.5c-3.6,4.2-5.4,9.4-5.4,15.6c0,6.2,1.8,11.5,5.4,15.9c3.9,3.7,8.6,5.6,14.1,5.6
			c5.5,0,10.2-1.8,14.1-5.6c3.9-4.4,5.8-9.7,5.8-15.9c0-6.2-2-11.4-5.8-15.6c-4.3-3.8-9-5.7-14.1-5.7
			C701.6,79.8,696.9,81.7,692.6,85.5z"/>
		<path class="st0" d="M784.3,72.5c2.3-2.7,5.4-4.9,9.4-6.5c4-1.6,7.7-2.4,11-2.4c3.3,0.1,5.7,0.8,7.3,2.3c1.5,1.5,2.3,3.3,2.3,5.5
			c0,2.2-0.8,4-2.3,5.6c-1.6,1.6-3.4,2.4-5.6,2.4c-9.3,0-16.7,7.6-22,22.6v28.5c0,2.2-0.8,4.1-2.4,5.6c-1.6,1.6-3.5,2.3-5.8,2.3
			s-4.2-0.8-5.7-2.3c-1.6-1.5-2.3-3.4-2.3-5.6V71.4c0-2.2,0.8-4.1,2.3-5.6c1.5-1.5,3.4-2.3,5.7-2.3s4.2,0.8,5.8,2.3
			c1.6,1.5,2.4,3.4,2.4,5.6V72.5z"/>
		<path class="st0" d="M850.3,41.6v3.1c0,2.3-0.8,4.3-2.3,5.9c-1.6,1.6-3.4,2.4-5.7,2.4s-4.2-0.8-5.8-2.4c-1.6-1.6-2.4-3.5-2.4-5.9
			v-3.1c0-2.2,0.8-4.1,2.4-5.7c1.6-1.6,3.5-2.4,5.8-2.4s4.1,0.8,5.7,2.3C849.5,37.4,850.3,39.3,850.3,41.6z M836.4,66
			c1.5-1.5,3.5-2.3,5.8-2.3c2.3,0,4.2,0.8,5.8,2.3c1.5,1.6,2.3,3.5,2.3,5.9v58.5c0,2.3-0.8,4.2-2.3,5.8c-1.6,1.6-3.4,2.3-5.7,2.3
			s-4.2-0.8-5.8-2.4c-1.6-1.6-2.4-3.5-2.4-5.7V71.9C834.1,69.5,834.8,67.5,836.4,66z"/>
		<path class="st0" d="M937.4,107.3c0,8.5-3.1,15.8-9.4,22c-6.3,6.2-13.6,9.2-22.2,9.2c-8.5,0-15.9-3-22-9.1
			c-6.1-6.1-9.2-13.4-9.2-22.1V71.4c0-2.1,0.8-3.9,2.3-5.6c1.5-1.6,3.4-2.4,5.6-2.4c2.2,0,4.1,0.8,5.6,2.4c1.5,1.6,2.3,3.5,2.3,5.6
			v35.8c0,4.3,1.5,7.9,4.4,10.9c2.9,3,6.6,4.4,10.9,4.4c4.3,0,8-1.5,11-4.4c3-2.9,4.6-6.6,4.7-10.9V71.4c0-2.1,0.8-3.9,2.3-5.6
			c1.5-1.6,3.3-2.4,5.5-2.4c2.1,0,4,0.8,5.7,2.4c1.6,1.6,2.5,3.5,2.5,5.6V107.3z"/>
		<path class="st0" d="M976,138.5l-1.5-0.1c-1.9-0.5-3.5-1.4-4.7-2.9c-1.2-1.4-1.8-3-1.8-5V71.6c0-2.3,0.8-4.2,2.3-5.8
			c1.5-1.5,3.4-2.3,5.6-2.3c3.5,0,5.9,1.5,7.2,4.5c5.1-3,10.4-4.5,16.1-4.5c9.6,0,17.4,3.5,23.5,10.4c5.9-6.9,13.4-10.4,22.6-10.4
			c9.2,0,16.8,3.1,23,9.2c6.1,6.1,9.2,13.6,9.2,22.3v35.5c0,2.2-0.8,4.1-2.3,5.6c-1.6,1.6-3.4,2.3-5.6,2.3c-2.2,0-4.1-0.8-5.7-2.3
			c-1.6-1.5-2.4-3.4-2.4-5.6V95c0-4.3-1.5-8-4.5-11s-6.6-4.5-10.7-4.5c-4.2,0-7.7,1.5-10.7,4.4c-3,2.9-4.6,6.5-4.8,10.6v36
			c0,2.2-0.8,4.1-2.3,5.6c-1.6,1.6-3.4,2.3-5.5,2.3c-2.2,0-4.1-0.8-5.7-2.4c-1.7-1.6-2.5-3.5-2.5-5.6v-36c-0.1-4.1-1.6-7.6-4.6-10.6
			c-3-2.9-6.6-4.4-10.7-4.4c-4.2,0-7.7,1.5-10.7,4.5s-4.5,6.7-4.5,11v35.5l-0.2,1.1v0.4l-0.4,0.9v0.8
			C981.9,136.9,979.4,138.5,976,138.5z"/>
	</g>
</g>
</svg>
